<svg width="130" height="67" viewBox="0 0 130 67" fill="none" xmlns="http://www.w3.org/2000/svg">
<path d="M105.878 33.6982C105.434 33.7046 104.453 33.682 104.082 33.5401C103.968 33.5165 103.699 33.4246 103.537 33.2467C103.466 33.1789 103.311 32.9866 103.259 32.7596C103.206 32.5511 103.105 31.9586 103.134 31.2567H103.088C103.096 31.6189 103.081 32.4268 102.963 32.7596C102.928 32.8758 102.823 33.1357 102.679 33.2467C102.613 33.3176 102.414 33.4756 102.14 33.5401C101.952 33.6002 101.331 33.7161 100.35 33.6982V33.7175V33.7368C100.756 33.7303 101.681 33.7529 102.14 33.8948C102.24 33.9153 102.488 34.0013 102.679 34.1818C102.746 34.2388 102.896 34.4186 102.963 34.6818C103.014 34.8571 103.112 35.4016 103.088 36.1782H103.131C103.127 35.7901 103.148 34.9475 103.259 34.6818C103.292 34.5947 103.356 34.3806 103.537 34.1818C103.634 34.0969 103.878 33.9207 104.082 33.8948C104.156 33.8551 104.619 33.7677 105.878 33.7368V33.6982Z" fill="url(#paint0_linear_1602_2797)"/>
<path d="M103.089 36.1782H103.131V38.0617H103.089V36.1782Z" fill="url(#paint1_linear_1602_2797)"/>
<path d="M91.3772 23.0386C92.6025 23.0564 95.3091 22.9941 96.3344 22.6025C96.649 22.5373 97.39 22.284 97.8385 21.7927C98.0343 21.6058 98.4616 21.0753 98.6039 20.4488C98.7523 19.8732 99.0294 18.238 98.951 16.3014H99.0756C99.0548 17.3012 99.0952 19.5303 99.4227 20.4488C99.5177 20.7692 99.8072 21.4864 100.206 21.7927C100.387 21.9885 100.937 22.4246 101.692 22.6025C102.211 22.7687 103.926 23.0884 106.632 23.0386V23.092V23.1454C105.513 23.1276 102.96 23.19 101.692 23.5815C101.416 23.6379 100.733 23.8752 100.206 24.3735C100.022 24.5309 99.6079 25.0268 99.4227 25.753C99.2804 26.2367 99.0116 27.7395 99.0756 29.8826H98.9599C98.9688 28.8117 98.9101 26.4864 98.6039 25.753C98.5149 25.5128 98.337 24.9218 97.8385 24.3735C97.5716 24.1392 96.8969 23.6527 96.3344 23.5815C96.1297 23.4717 94.8518 23.2308 91.3772 23.1454V23.0386Z" fill="url(#paint2_linear_1602_2797)"/>
<path d="M99.0757 29.8827H98.96V35.0803H99.0793L99.0757 29.8827Z" fill="url(#paint3_linear_1602_2797)"/>
<path d="M21.6196 35.2504C20.7089 35.2295 20.2535 35.6901 20.2535 36.6323V37.2762V44.2483C20.2535 45.1801 20.7089 45.6407 21.6196 45.6302V45.9286C21.4626 45.8972 21.248 45.8605 20.9758 45.8187C20.7036 45.7768 20.1592 45.7506 19.3427 45.7401C18.5261 45.7297 17.7305 45.7925 16.9558 45.9286V45.6302C17.8666 45.6511 18.322 45.1905 18.322 44.2483V44.1855V36.6323C18.322 35.7006 17.8666 35.24 16.9558 35.2504V34.9521C17.1128 34.9835 17.3275 35.0201 17.5996 35.062C17.8718 35.1039 18.411 35.1301 19.2171 35.1405C20.0336 35.151 20.8345 35.0882 21.6196 34.9521V35.2504ZM28.9958 35.2504C28.085 35.2295 27.6296 35.6901 27.6296 36.6323V37.2762V44.2483C27.6296 45.1801 28.085 45.6407 28.9958 45.6302V45.9286C28.8387 45.8972 28.6241 45.8605 28.3519 45.8187C28.0798 45.7768 27.5354 45.7506 26.7188 45.7401C25.9023 45.7297 25.1066 45.7925 24.3319 45.9286V45.6302C25.2427 45.6511 25.6981 45.1905 25.6981 44.2483V44.1855V36.6323C25.6981 35.7006 25.2427 35.24 24.3319 35.2504V34.9521C24.489 34.9835 24.7036 35.0201 24.9758 35.062C25.248 35.1039 25.7871 35.1301 26.5932 35.1405C27.4098 35.151 28.2106 35.0882 28.9958 34.9521V35.2504ZM38.7549 44.2326C39.1422 45.1539 39.6552 45.6145 40.2938 45.6145V45.9129C40.1577 45.871 39.964 45.8291 39.7128 45.7872C39.4615 45.7454 38.9381 45.7192 38.1425 45.7087C37.3468 45.6983 36.5512 45.7663 35.7556 45.9129V45.6145C36.7292 45.6145 37.0275 45.1539 36.6507 44.2326L36.5407 43.9971C36.2581 43.9971 35.7399 43.8244 34.9861 43.4789C34.6093 43.3114 34.3109 43.191 34.0911 43.1177C33.8817 43.034 33.6095 42.9502 33.2745 42.8665C32.9395 42.7722 32.6254 42.7461 32.3323 42.7879C32.0497 42.8298 31.7827 42.9345 31.5315 43.102L31.0918 44.2326C30.9243 44.6933 30.9086 45.0387 31.0447 45.269C31.1912 45.4994 31.4634 45.6145 31.8612 45.6145V45.9129C31.7356 45.8815 31.5681 45.8553 31.3587 45.8344C31.1598 45.8029 30.8143 45.7872 30.3223 45.7872C29.8303 45.7768 29.4168 45.8187 29.0818 45.9129V45.6145C29.4586 45.6145 29.7832 45.4994 30.0554 45.269C30.338 45.0387 30.5631 44.6933 30.7306 44.2326L34.2481 34.9521H34.7506L38.7549 44.2326ZM35.1275 43.1805C35.7451 43.4527 36.1691 43.6097 36.3994 43.6516L33.7456 37.3547L31.7042 42.6309C31.9764 42.5158 32.259 42.453 32.5522 42.4425C32.8453 42.432 33.1541 42.4739 33.4786 42.5681C33.8136 42.6623 34.0858 42.7513 34.2952 42.8351C34.5046 42.9083 34.782 43.0235 35.1275 43.1805ZM49.451 42.0185H49.6865C49.4248 43.191 48.9432 44.107 48.2418 44.7665C47.5823 45.3947 46.7971 45.8082 45.8863 46.0071C44.9756 46.206 44.0753 46.1746 43.1854 45.9129C42.2956 45.6512 41.5366 45.201 40.9085 44.5624C40.0081 43.6307 39.4533 42.5158 39.2439 41.2176C39.0346 39.909 39.2387 38.679 39.8564 37.5274C40.3274 36.669 41.0236 35.978 41.9449 35.4546C42.8766 34.9312 43.9287 34.6694 45.1012 34.6694C45.3734 34.6694 45.6299 34.6851 45.8706 34.7165C46.1219 34.7479 46.3627 34.8003 46.593 34.8736C46.8233 34.9364 47.0013 34.994 47.1269 35.0463C47.2525 35.0882 47.4096 35.1458 47.598 35.219C47.8806 35.3551 48.0795 35.4127 48.1947 35.3918C48.3099 35.3708 48.3517 35.219 48.3203 34.9364H48.6187L49.3567 38.6266L49.0427 38.658C48.7914 37.6321 48.2942 36.7632 47.5509 36.0513C46.8181 35.3394 45.9858 34.9835 45.0541 34.9835C44.2899 34.9835 43.6251 35.2609 43.0598 35.8158C42.4945 36.3601 42.0653 37.0301 41.7721 37.8258C41.5314 38.4853 41.3848 39.171 41.3324 39.8829C41.2801 40.5947 41.3429 41.3119 41.5209 42.0342C41.7093 42.7565 42.0234 43.3742 42.4631 43.8872C42.7143 44.1908 43.0022 44.4577 43.3267 44.688C43.6617 44.9183 44.0177 45.0963 44.3946 45.2219C44.7819 45.3476 45.1692 45.4104 45.5566 45.4104C46.5197 45.4104 47.3415 45.1329 48.022 44.5781C48.7024 44.0233 49.1788 43.1701 49.451 42.0185ZM58.4527 43.5417C58.6621 43.8662 58.8348 44.1279 58.9709 44.3269C59.1175 44.5153 59.2798 44.7037 59.4577 44.8922C59.6462 45.0806 59.8294 45.2219 60.0073 45.3162C60.1853 45.4104 60.3895 45.4889 60.6198 45.5517C60.8501 45.604 61.1066 45.6354 61.3892 45.6459V45.8972H59.2065C58.9029 45.8972 58.6098 45.8448 58.3271 45.7401C58.0445 45.625 57.7932 45.4679 57.5734 45.269C57.3535 45.0701 57.1703 44.8346 57.0238 44.5624C56.9923 44.5101 56.6416 43.8191 55.9716 42.4896C55.3016 41.1601 54.8724 40.3121 54.684 39.9457L52.5798 41.7986V44.2326C52.5798 45.1644 53.0352 45.6197 53.9459 45.5988V45.9129C53.7889 45.871 53.5743 45.8291 53.3021 45.7872C53.0299 45.7454 52.4855 45.7244 51.669 45.7244C50.8524 45.714 50.0568 45.7768 49.2821 45.9129V45.5988C50.1929 45.6302 50.6483 45.1748 50.6483 44.2326V44.1541C50.6483 44.1541 50.6483 43.526 50.6483 42.2697C50.6483 41.0135 50.6483 39.7572 50.6483 38.501V36.6166C50.6483 35.6744 50.1929 35.2138 49.2821 35.2347V34.9364C49.4391 34.9678 49.6538 35.0044 49.9259 35.0463C50.1981 35.0882 50.7373 35.1144 51.5434 35.1248C52.3599 35.1353 53.1608 35.0725 53.9459 34.9364V35.2347C53.0352 35.2033 52.5798 35.664 52.5798 36.6166V37.2604C52.5798 37.2604 52.5798 37.5954 52.5798 38.2654C52.5798 38.925 52.5798 39.5897 52.5798 40.2597V41.2647L55.9716 38.4225C56.4951 37.9723 56.8981 37.5693 57.1808 37.2133C57.4739 36.8469 57.6414 36.5276 57.6833 36.2554C57.7252 35.9728 57.6309 35.7425 57.4006 35.5645C57.1808 35.3865 56.8196 35.2662 56.3171 35.2033V34.9364C56.7777 35.0097 57.2541 35.062 57.7461 35.0934C58.2381 35.1144 58.6673 35.1196 59.0338 35.1091C59.4106 35.0882 59.7509 35.0672 60.0545 35.0463C60.3685 35.0254 60.6093 34.9992 60.7768 34.9678L61.0123 34.9364V35.2033C60.6669 35.2452 59.9027 35.7215 58.7197 36.6323C57.5472 37.5326 56.2805 38.569 54.9195 39.7415C55.4639 40.2859 56.0711 40.4011 56.7411 40.087L58.4527 43.5417ZM71.1579 44.2326C71.5453 45.1539 72.0582 45.6145 72.6968 45.6145V45.9129C72.5607 45.871 72.3671 45.8291 72.1158 45.7872C71.8646 45.7454 71.3411 45.7192 70.5455 45.7087C69.7499 45.6983 68.9542 45.7663 68.1586 45.9129V45.6145C69.1322 45.6145 69.4306 45.1539 69.0537 44.2326L68.9438 43.9971C68.6611 43.9971 68.1429 43.8244 67.3892 43.4789C67.0123 43.3114 66.7139 43.191 66.4941 43.1177C66.2847 43.034 66.0125 42.9502 65.6775 42.8665C65.3425 42.7722 65.0285 42.7461 64.7353 42.7879C64.4527 42.8298 64.1857 42.9345 63.9345 43.102L63.4948 44.2326C63.3273 44.6933 63.3116 45.0387 63.4477 45.269C63.5942 45.4994 63.8664 45.6145 64.2642 45.6145V45.9129C64.1386 45.8815 63.9711 45.8553 63.7617 45.8344C63.5628 45.8029 63.2174 45.7872 62.7253 45.7872C62.2333 45.7768 61.8198 45.8187 61.4848 45.9129V45.6145C61.8617 45.6145 62.1862 45.4994 62.4584 45.269C62.741 45.0387 62.9661 44.6933 63.1336 44.2326L66.6511 34.9521H67.1536L71.1579 44.2326ZM67.5305 43.1805C68.1481 43.4527 68.5721 43.6097 68.8024 43.6516L66.1486 37.3547L64.1072 42.6309C64.3794 42.5158 64.6621 42.453 64.9552 42.4425C65.2483 42.432 65.5571 42.4739 65.8817 42.5681C66.2167 42.6623 66.4888 42.7513 66.6982 42.8351C66.9076 42.9083 67.185 43.0235 67.5305 43.1805ZM81.0116 34.9207C81.022 34.9207 81.0377 34.9207 81.0587 34.9207C81.0482 34.9207 81.0325 34.9207 81.0116 34.9207ZM81.0116 34.9207L81.5926 38.0456L81.3256 38.0613C81.2 37.5379 80.9749 37.0877 80.6504 36.7108C80.3258 36.3235 79.9751 36.0461 79.5983 35.8786C79.2214 35.7111 78.855 35.5802 78.499 35.486C78.1431 35.3918 77.85 35.3447 77.6197 35.3447L77.2585 35.329V44.2326C77.2585 45.1644 77.7139 45.625 78.6247 45.6145V45.9129C78.4676 45.8815 78.2478 45.8448 77.9651 45.8029C77.6825 45.7611 77.1329 45.7349 76.3163 45.7244C75.5102 45.714 74.7251 45.7768 73.9608 45.9129V45.6145C74.8716 45.6354 75.327 45.1748 75.327 44.2326V43.5888L75.3427 35.329C75.3008 35.329 75.238 35.329 75.1543 35.329C75.0705 35.329 74.9135 35.3447 74.6832 35.3761C74.4529 35.4075 74.2226 35.4546 73.9922 35.5174C73.7724 35.5802 73.5159 35.6797 73.2228 35.8158C72.9401 35.9414 72.6837 36.0984 72.4533 36.2869C72.2335 36.4753 72.0189 36.7265 71.8095 37.0406C71.6106 37.3442 71.464 37.6844 71.3698 38.0613L71.1029 38.0456L71.6839 34.9207C72.0398 34.9416 72.5162 34.9678 73.1129 34.9992C73.7201 35.0306 74.8402 35.0515 76.4733 35.062C78.1169 35.0725 79.6297 35.0254 81.0116 34.9207ZM93.3907 35.219C92.4799 35.1981 92.0245 35.6587 92.0245 36.6009V37.2447V44.2169C92.0245 45.1487 92.4799 45.6093 93.3907 45.5988V45.8972C93.2337 45.8658 93.0191 45.8291 92.7469 45.7872C92.4747 45.7349 91.9303 45.7087 91.1137 45.7087C90.3076 45.6983 89.512 45.7611 88.7269 45.8972V45.5988C89.6376 45.6197 90.093 45.1591 90.093 44.2169V44.1541V39.7101C89.9988 39.8148 89.8784 39.9038 89.7319 39.9771C89.5853 40.0504 89.4073 40.1132 89.198 40.1655C88.9886 40.2179 88.8054 40.2597 88.6483 40.2912C88.4913 40.3121 88.2767 40.3435 88.0045 40.3854C87.7009 40.4272 87.4654 40.4639 87.2979 40.4953C87.1409 40.5267 86.9262 40.5738 86.6541 40.6366C86.3819 40.6994 86.1725 40.7675 86.0259 40.8408C85.8794 40.9036 85.7119 40.9978 85.5234 41.1234C85.335 41.249 85.1937 41.3904 85.0994 41.5474C85.0052 41.694 84.9215 41.8772 84.8482 42.097C84.7854 42.3169 84.754 42.5629 84.754 42.8351H84.7226V44.2012C84.7226 45.1329 85.178 45.5936 86.0887 45.5831V45.8815C85.9317 45.8501 85.7171 45.8134 85.4449 45.7715C85.1727 45.7297 84.6284 45.7035 83.8118 45.693C82.9952 45.6826 82.1996 45.7454 81.4249 45.8815V45.5831C82.3357 45.604 82.7911 45.1434 82.7911 44.2012V44.1384V36.5852C82.7911 35.6535 82.3357 35.1929 81.4249 35.2033V34.905C81.5819 34.9364 81.7966 34.973 82.0687 35.0149C82.3409 35.0568 82.8801 35.0829 83.6862 35.0934C84.5027 35.1039 85.3036 35.0411 86.0887 34.905V35.2033C85.178 35.1824 84.7226 35.643 84.7226 36.5852V37.229V41.516C84.8377 41.3066 84.9895 41.1234 85.178 40.9664C85.3769 40.8094 85.5705 40.6837 85.759 40.5895C85.9474 40.4953 86.1882 40.4115 86.4813 40.3383C86.7849 40.2545 87.0257 40.1969 87.2037 40.1655C87.3816 40.1341 87.6329 40.0975 87.9574 40.0556C88.7216 39.9404 89.2608 39.8148 89.5748 39.6787C89.8889 39.5426 90.0459 39.3123 90.0459 38.9878H90.093V36.6009C90.093 35.6692 89.6376 35.2086 88.7269 35.219V34.9207C88.8839 34.9521 89.0985 34.9887 89.3707 35.0306C89.6429 35.0725 90.1873 35.0987 91.0038 35.1091C91.8204 35.1196 92.616 35.0568 93.3907 34.9207V35.219ZM112.555 34.9364C112.764 34.9887 112.984 35.0306 113.215 35.062C113.445 35.0934 113.654 35.1144 113.843 35.1248C114.042 35.1248 114.23 35.1196 114.408 35.1091C114.596 35.0987 114.764 35.0829 114.911 35.062C115.057 35.0411 115.183 35.0254 115.287 35.0149C115.392 34.994 115.471 34.9783 115.523 34.9678C115.586 34.9469 115.617 34.9364 115.617 34.9364V35.2504C114.717 35.24 114.267 35.6954 114.267 36.6166V45.9129H113.686L106.415 36.1455V44.2326C106.405 45.1644 106.86 45.6302 107.781 45.6302V45.9129H107.75C107.289 45.7977 106.803 45.7401 106.29 45.7401C105.787 45.7401 105.4 45.7663 105.128 45.8187L104.704 45.9129V45.6145C105.593 45.6145 106.044 45.1539 106.054 44.2326V36.6166C106.044 35.6954 105.593 35.2347 104.704 35.2347V34.9364H104.719C105.274 35.0306 105.871 35.0882 106.509 35.1091C107.148 35.1301 107.645 35.1248 108.001 35.0934L108.551 35.062C108.551 35.1458 108.697 35.4075 108.99 35.8472C109.284 36.2869 109.76 36.9569 110.419 37.8572C111.089 38.7575 111.623 39.4798 112.021 40.0242C112.419 40.5581 113.047 41.3956 113.906 42.5367V36.6166C113.906 35.6954 113.45 35.2347 112.539 35.2347V34.9364H112.555Z" fill="url(#paint4_linear_1602_2797)"/>
<path d="M20.2537 22.8144C23.7383 22.934 25.4732 24.2202 25.4582 26.6729C25.4582 27.4804 25.2488 28.1908 24.8301 28.804C24.0225 29.9556 22.669 30.5986 20.7697 30.7332C20.351 30.7631 19.2592 30.7557 17.4945 30.7108C15.8643 30.6809 14.7727 30.6659 14.2193 30.6659C13.1276 30.6659 12.0657 30.7557 11.0338 30.9351V30.5089C12.3349 30.5388 12.9855 29.8808 12.9855 28.5348V28.4451C12.9855 28.4451 12.9855 28.2506 12.9855 27.8618C12.9855 27.458 12.9855 26.942 12.9855 26.3139C12.9855 25.6708 12.9855 24.9679 12.9855 24.2052C12.9855 23.4425 12.9855 22.6798 12.9855 21.917C12.9855 21.1394 12.9855 20.4365 12.9855 19.8083C12.9855 19.1653 12.9855 18.6493 12.9855 18.2605V17.6548C12.9855 16.3237 12.3349 15.6657 11.0338 15.6807V15.2544C11.5722 15.3741 12.2527 15.4563 13.0752 15.5012C13.8679 15.5461 14.9745 15.5311 16.3953 15.4563C17.831 15.3816 18.7956 15.3442 19.2891 15.3442C20.9641 15.3442 22.2652 15.6582 23.1925 16.2864C24.1197 16.8995 24.5833 17.7669 24.5833 18.8886C24.5833 19.9355 24.1945 20.8029 23.4168 21.4908C22.6391 22.1788 21.5848 22.5975 20.2537 22.7471V22.8144ZM15.7447 15.7928V22.59H18.6386C19.7602 22.59 20.6202 22.2835 21.2184 21.6703C21.8166 21.0422 22.1157 20.1374 22.1157 18.9559C22.1157 17.924 21.839 17.1388 21.2857 16.6004C20.7473 16.062 19.9621 15.7928 18.9302 15.7928H15.7447ZM19.0424 30.3743C20.4033 30.3743 21.3978 30.0752 22.026 29.477C22.6541 28.8638 22.9681 27.9665 22.9681 26.785C22.9681 25.4839 22.6316 24.5342 21.9587 23.936C21.2857 23.3378 20.179 23.0387 18.6386 23.0387H16.0139H15.7447V30.3743H19.0424ZM38.5169 28.5572C39.0703 29.8733 39.8031 30.5313 40.7154 30.5313V30.9576C40.5209 30.8977 40.2443 30.8379 39.8853 30.7781C39.5264 30.7183 38.7786 30.6809 37.642 30.6659C36.5054 30.651 35.3688 30.7482 34.2322 30.9576V30.5313C35.6231 30.5313 36.0493 29.8733 35.5109 28.5572L35.3539 28.2207C34.9501 28.2207 34.2098 27.974 33.133 27.4804C32.5946 27.2412 32.1684 27.0692 31.8543 26.9645C31.5552 26.8448 31.1664 26.7252 30.6878 26.6056C30.2092 26.471 29.7606 26.4336 29.3418 26.4934C28.938 26.5532 28.5567 26.7028 28.1977 26.942L27.5696 28.5572C27.3303 29.2153 27.3079 29.7088 27.5023 30.0378C27.7117 30.3668 28.1005 30.5313 28.6688 30.5313V30.9576C28.4894 30.9127 28.2501 30.8753 27.951 30.8454C27.6668 30.8005 27.1733 30.7781 26.4704 30.7781C25.7675 30.7631 25.1768 30.823 24.6982 30.9576V30.5313C25.2366 30.5313 25.7002 30.3668 26.089 30.0378C26.4928 29.7088 26.8144 29.2153 27.0536 28.5572L32.0786 15.2993H32.7965L38.5169 28.5572ZM33.3349 27.0542C34.2173 27.4431 34.823 27.6674 35.152 27.7272L31.3608 18.7316L28.4445 26.2691C28.8333 26.1045 29.2371 26.0148 29.6559 25.9999C30.0746 25.9849 30.5158 26.0447 30.9794 26.1793C31.458 26.3139 31.8468 26.441 32.1459 26.5607C32.4451 26.6654 32.8414 26.8299 33.3349 27.0542ZM52.0886 15.2769C52.3877 15.3516 52.7018 15.4115 53.0308 15.4563C53.3598 15.5012 53.6589 15.5311 53.9281 15.5461C54.2123 15.5461 54.4815 15.5386 54.7357 15.5236C55.0049 15.5087 55.2442 15.4862 55.4536 15.4563C55.6629 15.4264 55.8424 15.404 55.992 15.389C56.1415 15.3591 56.2537 15.3367 56.3285 15.3217C56.4182 15.2918 56.4631 15.2769 56.4631 15.2769V15.7255C55.1769 15.7106 54.5338 16.3611 54.5338 17.6772V30.9576H53.7038L43.3173 17.0042V28.5572C43.3023 29.8883 43.9529 30.5538 45.269 30.5538V30.9576H45.2241C44.5661 30.7931 43.8706 30.7108 43.1378 30.7108C42.42 30.7108 41.8666 30.7482 41.4778 30.823L40.8721 30.9576V30.5313C42.1433 30.5313 42.7864 29.8733 42.8013 28.5572V17.6772C42.7864 16.3611 42.1433 15.7031 40.8721 15.7031V15.2769H40.8945C41.6872 15.4115 42.5396 15.4937 43.4519 15.5236C44.3642 15.5535 45.0746 15.5461 45.583 15.5012L46.3682 15.4563C46.3682 15.576 46.5776 15.9499 46.9963 16.578C47.4151 17.2061 48.0955 18.1633 49.0377 19.4494C49.9949 20.7356 50.7576 21.7675 51.3259 22.5452C51.8942 23.3079 52.7915 24.5043 54.0179 26.1345V17.6772C54.0179 16.3611 53.3673 15.7031 52.0662 15.7031V15.2769H52.0886ZM66.2338 23.4201C66.4582 23.4649 66.7648 23.5173 67.1536 23.5771C67.5424 23.6369 68.3201 23.6743 69.4866 23.6893C70.6532 23.7042 71.7898 23.6145 72.8965 23.4201V23.8463C71.6701 23.8164 71.027 24.4146 70.9672 25.6409L70.9448 30.9127H70.5186C70.369 30.5089 70.2419 30.1948 70.1372 29.9705C70.0325 29.7462 69.9129 29.5518 69.7783 29.3872C69.6586 29.2078 69.5465 29.0956 69.4418 29.0508C69.3371 28.9909 69.2025 28.9835 69.038 29.0283C68.8735 29.0582 68.7015 29.133 68.522 29.2527C68.3425 29.3573 68.1107 29.5218 67.8266 29.7462C66.8545 30.4341 65.7628 30.8753 64.5514 31.0697C63.3549 31.2641 62.1735 31.1819 61.0069 30.823C59.8554 30.464 58.8683 29.8658 58.0458 29.0283C56.7596 27.6973 55.967 26.1045 55.6679 24.2501C55.3688 22.3807 55.6604 20.6234 56.5428 18.9783C57.2158 17.752 58.2103 16.7649 59.5264 16.0172C60.8574 15.2694 62.3604 14.8955 64.0354 14.8955C64.4093 14.8955 64.7757 14.9179 65.1346 14.9628C65.4936 15.0077 65.8375 15.0825 66.1665 15.1871C66.4956 15.2769 66.7498 15.3516 66.9293 15.4115C67.1087 15.4713 67.3331 15.561 67.6023 15.6807C68.0061 15.8751 68.2902 15.9573 68.4547 15.9274C68.6192 15.8975 68.679 15.6732 68.6342 15.2544H69.0604L70.0923 20.5486L69.6661 20.5935C69.3072 19.1279 68.5968 17.8866 67.535 16.8696C66.4881 15.8527 65.2991 15.3442 63.9681 15.3442C62.8764 15.3442 61.9267 15.7405 61.1191 16.5331C60.3115 17.3108 59.6984 18.2679 59.2796 19.4045C58.9356 20.3467 58.7263 21.3263 58.6515 22.3433C58.5767 23.3602 58.6664 24.3847 58.9207 25.4166C59.1899 26.4336 59.6385 27.3159 60.2667 28.0637C60.7751 28.6619 61.4182 29.1554 62.1959 29.5443C62.9736 29.9331 63.7363 30.1649 64.4841 30.2397C65.2468 30.2995 65.9572 30.1724 66.6152 29.8583C67.2882 29.5443 67.7518 29.0358 68.0061 28.3329C68.0808 28.1385 68.1332 27.9291 68.1631 27.7048C68.193 27.4655 68.208 27.2636 68.208 27.0991C68.208 26.9346 68.2005 26.7102 68.1855 26.4261C68.1855 26.1419 68.1855 25.94 68.1855 25.8204C68.1855 24.4744 67.535 23.8164 66.2338 23.8463V23.4201ZM91.6813 15.7031C90.3652 15.7031 89.7072 16.3611 89.7072 17.6772V28.5348C89.7072 29.8658 90.3652 30.5313 91.6813 30.5313V30.9351H91.6588C90.6718 30.7407 89.6249 30.6435 88.5182 30.6435C87.4115 30.6435 86.5516 30.6958 85.9384 30.8005L85.0187 30.9351V30.5313C86.3497 30.5164 87.0152 29.8509 87.0152 28.5348V16.9818L81.2948 30.9127H80.5096L74.2059 16.9818V28.5348C74.2059 29.8957 74.8565 30.5837 76.1576 30.5986V30.9576C75.4846 30.823 74.7817 30.7557 74.0489 30.7557C73.3161 30.7557 72.7553 30.7856 72.3664 30.8454L71.7607 30.9576V30.5762C73.0768 30.5762 73.7348 29.8957 73.7348 28.5348V17.6772C73.7348 16.3611 73.0768 15.7031 71.7607 15.7031V15.2769C72.2991 15.3965 72.9946 15.4713 73.847 15.5012C74.6995 15.5311 75.4173 15.5311 76.0006 15.5012L76.8755 15.4563C76.8755 15.7106 77.3167 16.8547 78.199 18.8886C79.0814 20.9225 79.9638 22.8891 80.8461 24.7885L82.1697 27.6375L87.1049 15.5236C87.1348 15.5236 87.2171 15.5311 87.3517 15.5461C87.5013 15.5461 87.7106 15.5535 87.9798 15.5685C88.264 15.5685 88.578 15.561 88.922 15.5461C89.2809 15.5311 89.6997 15.5012 90.1783 15.4563C90.6718 15.4115 91.1728 15.3516 91.6813 15.2769V15.7031ZM105.161 17.1164C106.566 18.567 107.269 20.5038 107.269 22.9265C107.269 24.4819 106.895 25.8877 106.148 27.1439C105.4 28.4152 104.39 29.4022 103.119 30.1051C101.833 30.823 100.442 31.1819 98.9466 31.1819C96.6435 31.1819 94.7142 30.4117 93.1589 28.8713C91.6035 27.3458 90.8258 25.4689 90.8258 23.2406C90.8258 21.7002 91.1623 20.3093 91.8353 19.0681C92.5382 17.8268 93.5327 16.8322 94.8189 16.0845C96.12 15.3217 97.5931 14.9329 99.2382 14.9179C101.751 14.9179 103.725 15.6508 105.161 17.1164ZM103.478 26.8523C103.942 25.6858 104.173 24.3847 104.173 22.949C104.173 20.7057 103.732 18.911 102.85 17.565C101.878 16.0845 100.666 15.3442 99.2158 15.3442C98.2886 15.3442 97.3613 15.7554 96.4341 16.578C95.6265 17.2809 95.0133 18.2081 94.5946 19.3597C94.1609 20.5112 93.944 21.7974 93.944 23.2182C93.944 25.282 94.4375 27.0318 95.4246 28.4675C96.4715 30.0079 97.6529 30.7781 98.969 30.7781C99.7467 30.7781 100.607 30.3893 101.549 29.6116C102.341 28.9685 102.985 28.0487 103.478 26.8523ZM121.067 19.2027C121.666 20.3093 121.965 21.5955 121.965 23.0611C121.965 23.3004 121.957 23.5397 121.942 23.779C121.838 25.2147 121.419 26.4635 120.686 27.5253C119.953 28.5722 118.951 29.3723 117.68 29.9256C116.334 30.5239 114.726 30.8005 112.857 30.7557C112.618 30.7557 112.124 30.7407 111.376 30.7108C110.629 30.6809 110.053 30.6659 109.649 30.6659C109.066 30.6809 108.52 30.7033 108.011 30.7332C107.727 30.7631 107.458 30.7931 107.204 30.823C107.144 30.823 107.024 30.8454 106.845 30.8903C106.665 30.9202 106.523 30.9351 106.419 30.9351V30.5089C107.72 30.5388 108.37 29.8808 108.37 28.5348V28.4451C108.37 28.4451 108.37 27.5477 108.37 25.7531C108.37 23.9585 108.37 22.1563 108.37 20.3467V17.6548C108.37 16.3237 107.72 15.6657 106.419 15.6807V15.2544C106.912 15.3591 107.525 15.4339 108.258 15.4788C109.23 15.5535 110.165 15.5535 111.062 15.4788C112.094 15.404 112.812 15.3666 113.216 15.3666C113.62 15.3516 114.001 15.3591 114.36 15.389C115.945 15.5236 117.314 15.9199 118.465 16.578C119.587 17.2211 120.454 18.096 121.067 19.2027ZM113.216 30.3294C117.284 30.3294 119.318 27.9067 119.318 23.0611C119.318 20.6085 118.809 18.7839 117.792 17.5875C116.79 16.3761 115.265 15.7704 113.216 15.7704H111.13V17.6323C111.13 17.6473 111.13 17.6548 111.13 17.6548V18.5745V28.5348V30.3294H113.216Z" fill="url(#paint5_linear_1602_2797)"/>
<path d="M58.0658 54.8084C58.0914 54.7893 58.1168 54.7766 58.1424 54.7702C58.1297 55.0509 58.1041 55.2934 58.0658 55.4976C58.0276 55.6954 57.9478 55.8709 57.8266 56.024C57.6033 56.3176 57.2714 56.477 56.8311 56.5026C56.5248 56.5217 56.158 56.4579 55.7304 56.3112C55.6794 56.292 55.523 56.2346 55.2614 56.1389C54.9998 56.0432 54.7988 55.9762 54.6584 55.9379C54.3138 55.8422 54.0394 55.8422 53.8353 55.9379C53.6694 56.0144 53.5354 56.142 53.4333 56.3207C53.3886 56.3973 53.3567 56.4452 53.3376 56.4643C53.2801 56.5153 53.2258 56.5282 53.1748 56.5026C52.9898 56.1197 52.9324 55.7209 53.0026 55.3062C53.0727 54.885 53.2578 54.5277 53.5577 54.2342C53.6407 54.1449 53.7427 54.0587 53.864 53.9757C53.9853 53.8864 54.0873 53.8162 54.1703 53.7652C54.2533 53.7142 54.3744 53.6439 54.534 53.5546C54.6998 53.4589 54.8116 53.395 54.869 53.3632C55.0796 53.2419 55.255 53.1303 55.3954 53.0282C55.5421 52.926 55.7048 52.7953 55.8836 52.6357C56.0686 52.4762 56.2058 52.3039 56.2951 52.1189C56.3908 51.9274 56.4387 51.7296 56.4387 51.5254C56.4323 51.2064 56.3844 50.9352 56.2951 50.7119C56.2121 50.5204 56.0814 50.3737 55.9027 50.2716C55.7304 50.1632 55.5358 50.112 55.3188 50.1184C55.1018 50.1184 54.9168 50.1727 54.7637 50.2812C54.6106 50.3833 54.4988 50.5204 54.4287 50.6927C54.3586 50.865 54.3234 51.0564 54.3234 51.267C54.3234 51.5989 54.4031 51.8827 54.5627 52.1189C54.1798 52.138 53.8767 52.0614 53.6534 51.8892C53.4364 51.7169 53.328 51.4967 53.328 51.2287C53.328 50.9734 53.4301 50.7342 53.6343 50.5109C53.7364 50.4024 53.8288 50.3226 53.9118 50.2716C54.3648 49.9972 54.885 49.8569 55.472 49.8504C56.0654 49.844 56.5887 49.978 57.0417 50.2524C57.2396 50.3737 57.4023 50.5396 57.5298 50.7502C57.7148 51.0883 57.7723 51.4329 57.7021 51.7839C57.632 52.1284 57.4564 52.4347 57.1757 52.7027C56.9013 52.9643 56.4674 53.2196 55.874 53.4684C55.8548 53.4749 55.8261 53.4844 55.7878 53.4972C55.5708 53.5929 55.4018 53.6663 55.2806 53.7173C55.1657 53.7683 55.003 53.8482 54.7924 53.9566C54.5818 54.0587 54.416 54.1544 54.2947 54.2437C54.1734 54.3267 54.0331 54.4352 53.8736 54.5692C53.714 54.7032 53.5928 54.8372 53.5098 54.9712C53.4268 55.1052 53.3503 55.2647 53.2801 55.4497C53.2163 55.6284 53.1844 55.8166 53.1844 56.0144C53.1844 55.8103 53.2323 55.6156 53.328 55.4306C53.4301 55.2456 53.5641 55.0924 53.73 54.9712C53.9023 54.8436 54.0873 54.7606 54.2851 54.7223C54.617 54.6584 55.0381 54.7287 55.5486 54.9329C55.5868 54.952 55.6826 54.9934 55.8357 55.0573C55.9888 55.1212 56.0973 55.1657 56.1611 55.1913C56.2313 55.2169 56.327 55.2456 56.4483 55.2774C56.5696 55.3093 56.6811 55.3317 56.7833 55.3444C57.013 55.3763 57.2331 55.3604 57.4437 55.2966C57.6607 55.2264 57.8297 55.1083 57.951 54.9424C58.0084 54.8723 58.0467 54.8276 58.0658 54.8084ZM61.0705 49.8696C61.9192 49.8696 62.5797 50.1694 63.0518 50.7693C63.5304 51.3692 63.7697 52.1603 63.7697 53.143C63.7697 53.6152 63.6962 54.065 63.5495 54.4926C63.4028 54.9137 63.1985 55.2743 62.937 55.5742C62.6817 55.874 62.3818 56.1133 62.0372 56.292C61.6991 56.4643 61.3385 56.5504 60.9557 56.5504C60.4515 56.5504 59.9921 56.4069 59.5774 56.1197C59.1627 55.8262 58.8339 55.4306 58.5915 54.9329C58.3491 54.4287 58.2278 53.8736 58.2278 53.2674C58.2278 52.6484 58.3427 52.0837 58.5724 51.5733C58.8021 51.0564 59.134 50.6449 59.5678 50.3386C60.0081 50.0259 60.5089 49.8696 61.0705 49.8696ZM61.0322 50.1759C60.7451 50.1759 60.4835 50.3194 60.2474 50.6066C60.0177 50.8873 59.8422 51.2606 59.721 51.7264C59.6061 52.1923 59.5487 52.7059 59.5487 53.2674C59.5487 53.8162 59.6092 54.3172 59.7305 54.7702C59.8581 55.2232 60.0304 55.5837 60.2474 55.8517C60.4707 56.1133 60.7132 56.2442 60.9748 56.2442C61.2428 56.2442 61.4885 56.1102 61.7118 55.8422C61.9415 55.5742 62.1234 55.204 62.2574 54.7319C62.3914 54.2533 62.4584 53.7269 62.4584 53.1526C62.4584 52.2593 62.3308 51.5414 62.0755 50.999C61.8267 50.4503 61.479 50.1759 61.0322 50.1759ZM68.9179 54.8084C68.9433 54.7893 68.9689 54.7766 68.9945 54.7702C68.9816 55.0509 68.9562 55.2934 68.9179 55.4976C68.8796 55.6954 68.7998 55.8709 68.6786 56.024C68.4552 56.3176 68.1235 56.477 67.6832 56.5026C67.3769 56.5217 67.0099 56.4579 66.5825 56.3112C66.5313 56.292 66.375 56.2346 66.1135 56.1389C65.8517 56.0432 65.6508 55.9762 65.5105 55.9379C65.1659 55.8422 64.8915 55.8422 64.6873 55.9379C64.5213 56.0144 64.3873 56.142 64.2853 56.3207C64.2406 56.3973 64.2088 56.4452 64.1896 56.4643C64.1322 56.5153 64.0779 56.5282 64.0269 56.5026C63.8417 56.1197 63.7843 55.7209 63.8546 55.3062C63.9248 54.885 64.1097 54.5277 64.4098 54.2342C64.4926 54.1449 64.5948 54.0587 64.716 53.9757C64.8372 53.8864 64.9393 53.8162 65.0223 53.7652C65.1052 53.7142 65.2265 53.6439 65.386 53.5546C65.5519 53.4589 65.6636 53.395 65.721 53.3632C65.9316 53.2419 66.107 53.1303 66.2475 53.0282C66.3942 52.926 66.5569 52.7953 66.7356 52.6357C66.9206 52.4762 67.0578 52.3039 67.1472 52.1189C67.2429 51.9274 67.2908 51.7296 67.2908 51.5254C67.2843 51.2064 67.2365 50.9352 67.1472 50.7119C67.0642 50.5204 66.9333 50.3737 66.7548 50.2716C66.5825 50.1632 66.3877 50.112 66.1709 50.1184C65.9539 50.1184 65.7689 50.1727 65.6158 50.2812C65.4626 50.3833 65.3509 50.5204 65.2808 50.6927C65.2105 50.865 65.1755 51.0564 65.1755 51.267C65.1755 51.5989 65.2552 51.8827 65.4148 52.1189C65.0319 52.138 64.7288 52.0614 64.5055 51.8892C64.2885 51.7169 64.18 51.4967 64.18 51.2287C64.18 50.9734 64.282 50.7342 64.4863 50.5109C64.5883 50.4024 64.6809 50.3226 64.7639 50.2716C65.2169 49.9972 65.7369 49.8569 66.324 49.8504C66.9175 49.844 67.4406 49.978 67.8938 50.2524C68.0915 50.3737 68.2542 50.5396 68.3819 50.7502C68.5669 51.0883 68.6243 51.4329 68.5542 51.7839C68.4839 52.1284 68.3085 52.4347 68.0278 52.7027C67.7533 52.9643 67.3195 53.2196 66.726 53.4684C66.7069 53.4749 66.6782 53.4844 66.6399 53.4972C66.4229 53.5929 66.2538 53.6663 66.1326 53.7173C66.0178 53.7683 65.855 53.8482 65.6445 53.9566C65.4339 54.0587 65.2679 54.1544 65.1468 54.2437C65.0255 54.3267 64.885 54.4352 64.7256 54.5692C64.566 54.7032 64.4447 54.8372 64.3619 54.9712C64.2789 55.1052 64.2023 55.2647 64.1322 55.4497C64.0683 55.6284 64.0365 55.8166 64.0365 56.0144C64.0365 55.8103 64.0843 55.6156 64.18 55.4306C64.282 55.2456 64.416 55.0924 64.582 54.9712C64.7543 54.8436 64.9393 54.7606 65.1372 54.7223C65.4689 54.6584 65.89 54.7287 66.4006 54.9329C66.4389 54.952 66.5346 54.9934 66.6878 55.0573C66.8409 55.1212 66.9493 55.1657 67.0132 55.1913C67.0833 55.2169 67.179 55.2456 67.3003 55.2774C67.4215 55.3093 67.5332 55.3317 67.6353 55.3444C67.865 55.3763 68.0852 55.3604 68.2958 55.2966C68.5126 55.2264 68.6818 55.1083 68.803 54.9424C68.8605 54.8723 68.8988 54.8276 68.9179 54.8084ZM74.6156 53.3153C74.5326 53.7173 74.4912 54.1353 74.4912 54.5692C74.4912 54.9967 74.5039 55.2902 74.5294 55.4497C74.555 55.6029 74.5804 55.7337 74.606 55.8422C74.6124 55.8486 74.6156 55.8517 74.6156 55.8517H74.405C74.405 55.0924 74.1274 54.7127 73.5723 54.7127H73.2947V55.354C73.2883 55.9793 73.6042 56.292 74.2423 56.292V56.5026C73.885 56.4196 73.4543 56.3782 72.9502 56.3782C72.446 56.3782 72.0313 56.3973 71.7059 56.4356L71.2177 56.5026V56.292C71.8494 56.292 72.1622 55.9793 72.1557 55.354V54.7127H69.2556V54.5309L72.8544 49.9079H73.2947V54.4543H73.5723C74.1274 54.4543 74.405 54.0746 74.405 53.3153H74.6156ZM72.1557 54.4543V51.1522L69.5906 54.4543H72.1557Z" fill="url(#paint6_linear_1602_2797)"/>
<path d="M91.5571 41.3922C92.7592 41.409 95.4149 41.3502 96.4209 40.9804C96.7294 40.9187 97.4564 40.6796 97.8966 40.2157C98.0886 40.0392 98.5078 39.5384 98.6475 38.9469C98.793 38.4034 99.0368 36.8983 98.9599 35.0697L99.0792 35.0703C99.0589 36.0143 99.1295 38.0796 99.4509 38.9469C99.5439 39.2494 99.828 39.9266 100.219 40.2157C100.397 40.4005 100.937 40.8124 101.677 40.9804C102.187 41.1372 103.869 41.4392 106.524 41.3922V41.493C105.426 41.4763 102.921 41.5351 101.677 41.9047C101.407 41.958 100.736 42.182 100.219 42.6527C100.039 42.8012 99.6324 43.2694 99.4509 43.9551C99.3112 44.4117 99.0164 45.8337 99.0792 47.8571L98.9968 47.8543C99.0055 46.843 98.9566 44.6476 98.6563 43.9551C98.5689 43.7283 98.3856 43.1703 97.8966 42.6527C97.6345 42.4313 96.9728 41.972 96.4209 41.9047C96.2201 41.8011 94.9661 41.5736 91.5571 41.493V41.3922Z" fill="url(#paint7_linear_1602_2797)"/>
<path d="M99.0792 47.8572L98.9968 47.8544L99.0045 49.2032H99.0792V47.8572Z" fill="url(#paint8_linear_1602_2797)"/>
<path d="M103.52 41.5848C103.428 44.0067 101.312 45.903 98.788 45.8142C96.2641 45.7252 94.2979 43.6852 94.3901 41.2631C94.4822 38.8413 96.5981 36.9449 99.1219 37.0338C101.646 37.1227 103.612 39.1628 103.52 41.5848Z" stroke="#F8E7AE" stroke-width="0.149554"/>
<path d="M103.522 41.4269C103.522 42.0392 103.035 42.6125 102.204 43.0373C101.377 43.46 100.23 43.7236 98.9583 43.7236C97.6868 43.7236 96.5393 43.46 95.7124 43.0373C94.8815 42.6125 94.3945 42.0392 94.3945 41.4269C94.3945 40.8148 94.8815 40.2414 95.7124 39.8167C96.5393 39.3939 97.6868 39.1302 98.9583 39.1302C100.23 39.1302 101.377 39.3939 102.204 39.8167C103.035 40.2414 103.522 40.8148 103.522 41.4269Z" stroke="#F8E7AE" stroke-width="0.149554"/>
<path d="M18.9185 45.1651L18.7049 43.376C18.6281 43.0059 18.3299 42.1337 17.7517 41.6058C17.5317 41.3753 16.9075 40.8725 16.17 40.7048C15.4927 40.5303 13.5681 40.2043 11.2888 40.2964V40.1497C12.4655 40.1742 15.089 40.1267 16.17 39.7413C16.5472 39.6296 17.3914 39.2887 17.7517 38.8194C17.9821 38.6065 18.4954 37.9584 18.7049 37.0702C18.7049 37.0702 18.769 36.0424 18.9185 35.5189H19.5167L19.8571 37.0702C19.9235 37.3949 20.2029 38.1994 20.7894 38.8194C20.9744 39.036 21.5583 39.5234 22.413 39.7413C22.982 39.9088 24.7509 40.2252 27.2733 40.1497V40.2859C26.0127 40.2755 23.276 40.3446 22.413 40.7048C22.1302 40.8097 21.4346 41.0192 20.7894 41.6058C20.5135 41.92 19.941 42.7139 19.8571 43.376C19.7279 43.6169 19.5167 45.1651 19.5167 45.1651H18.9185Z" fill="url(#paint9_linear_1602_2797)"/>
<path d="M27.2733 40.1498V40.286H32.4102V40.1498H27.2733Z" fill="url(#paint10_linear_1602_2797)"/>
<path d="M11.2888 40.2965V40.1498H0V40.2965H11.2888Z" fill="url(#paint11_linear_1602_2797)"/>
<path d="M19.442 45.9129C15.1087 45.9129 11.2006 45.2806 8.38121 44.2744C6.97083 43.7711 5.84079 43.177 5.06622 42.528C4.29062 41.8781 3.88843 41.1886 3.88843 40.4919C3.88843 39.7941 4.28693 39.0997 5.05563 38.443C5.82335 37.7871 6.94411 37.1838 8.34494 36.6712C11.1454 35.6465 15.0344 34.9955 19.3672 34.9955C25.1479 34.9955 30.4599 36.3093 33.1665 37.9248L30.7737 44.2506C27.9414 45.238 23.7719 45.9129 19.442 45.9129Z" stroke="#F7E4A4" stroke-width="0.299107"/>
<path d="M20.4141 45.3895C21.2516 45.6288 22.458 45.6388 22.9565 45.6139V45.8382L15.0302 45.7634V45.5391C16.7052 45.7185 17.8717 45.5141 18.2456 45.3895H20.4141Z" fill="url(#paint12_linear_1602_2797)"/>
<path d="M15.0302 35.3693C16.2266 35.2497 17.1239 35.2697 17.423 35.2945V35.1451H15.0302V35.3693Z" fill="url(#paint13_linear_1602_2797)"/>
<path d="M15.0302 35.3693C16.2266 35.2497 17.1239 35.2697 17.423 35.2945V35.1451H15.0302V35.3693Z" fill="url(#paint14_linear_1602_2797)"/>
<path d="M20.4889 35.3693C21.6853 35.2497 22.5826 35.2697 22.8817 35.2945V35.1451H20.4889V35.3693Z" fill="url(#paint15_linear_1602_2797)"/>
<path d="M20.4889 35.3693C21.6853 35.2497 22.5826 35.2697 22.8817 35.2945V35.1451H20.4889V35.3693Z" fill="url(#paint16_linear_1602_2797)"/>
<path d="M74.3281 48.0814H53.241C50.3089 48.0814 47.9319 50.4584 47.9319 53.3906C47.9319 56.3227 50.3089 58.6997 53.241 58.6997H74.3281C77.2603 58.6997 79.6372 56.3227 79.6372 53.3906C79.6372 50.4584 77.2603 48.0814 74.3281 48.0814Z" stroke="white" stroke-width="0.149554"/>
<defs>
<linearGradient id="paint0_linear_1602_2797" x1="103.002" y1="30.7374" x2="106.033" y2="32.8607" gradientUnits="userSpaceOnUse">
<stop stop-color="#F3B369"/>
<stop offset="0.470638" stop-color="#C08D53"/>
<stop offset="0.951214" stop-color="#9CB5B6"/>
</linearGradient>
<linearGradient id="paint1_linear_1602_2797" x1="103.109" y1="35.9795" x2="103.143" y2="35.98" gradientUnits="userSpaceOnUse">
<stop stop-color="#F3B369"/>
<stop offset="0.470638" stop-color="#C08D53"/>
<stop offset="0.951214" stop-color="#9CB5B6"/>
</linearGradient>
<linearGradient id="paint2_linear_1602_2797" x1="98.694" y1="14.8683" x2="107.059" y2="20.7277" gradientUnits="userSpaceOnUse">
<stop stop-color="#F3B369"/>
<stop offset="0.470638" stop-color="#C08D53"/>
<stop offset="0.951214" stop-color="#9CB5B6"/>
</linearGradient>
<linearGradient id="paint3_linear_1602_2797" x1="99.0172" y1="29.3342" x2="99.1147" y2="29.3356" gradientUnits="userSpaceOnUse">
<stop stop-color="#F3B369"/>
<stop offset="0.470638" stop-color="#C08D53"/>
<stop offset="0.951214" stop-color="#9CB5B6"/>
</linearGradient>
<linearGradient id="paint4_linear_1602_2797" x1="64.2785" y1="33.4595" x2="66.9851" y2="47.9837" gradientUnits="userSpaceOnUse">
<stop stop-color="#F3B369"/>
<stop offset="0.470638" stop-color="#C08D53"/>
<stop offset="0.951214" stop-color="#9CB5B6"/>
</linearGradient>
<linearGradient id="paint5_linear_1602_2797" x1="64.2415" y1="13.1769" x2="69.0026" y2="33.402" gradientUnits="userSpaceOnUse">
<stop stop-color="#F3B369"/>
<stop offset="0.470638" stop-color="#C08D53"/>
<stop offset="0.951214" stop-color="#9CB5B6"/>
</linearGradient>
<linearGradient id="paint6_linear_1602_2797" x1="63.3541" y1="49.1432" x2="66.8516" y2="56.1887" gradientUnits="userSpaceOnUse">
<stop stop-color="#F3B369"/>
<stop offset="0.470638" stop-color="#C08D53"/>
<stop offset="0.951214" stop-color="#9CB5B6"/>
</linearGradient>
<linearGradient id="paint7_linear_1602_2797" x1="98.7358" y1="33.7203" x2="106.717" y2="39.5463" gradientUnits="userSpaceOnUse">
<stop stop-color="#F3B369"/>
<stop offset="0.470638" stop-color="#C08D53"/>
<stop offset="0.951214" stop-color="#9CB5B6"/>
</linearGradient>
<linearGradient id="paint8_linear_1602_2797" x1="99.0364" y1="47.712" x2="99.1036" y2="47.7146" gradientUnits="userSpaceOnUse">
<stop stop-color="#F3B369"/>
<stop offset="0.470638" stop-color="#C08D53"/>
<stop offset="0.951214" stop-color="#9CB5B6"/>
</linearGradient>
<linearGradient id="paint9_linear_1602_2797" x1="18.9557" y1="34.501" x2="25.2737" y2="41.0305" gradientUnits="userSpaceOnUse">
<stop stop-color="#F3B369"/>
<stop offset="0.470638" stop-color="#C08D53"/>
<stop offset="0.951214" stop-color="#9CB5B6"/>
</linearGradient>
<linearGradient id="paint10_linear_1602_2797" x1="29.7372" y1="40.1354" x2="29.7448" y2="40.3137" gradientUnits="userSpaceOnUse">
<stop stop-color="#F3B369"/>
<stop offset="0.470638" stop-color="#C08D53"/>
<stop offset="0.951214" stop-color="#9CB5B6"/>
</linearGradient>
<linearGradient id="paint11_linear_1602_2797" x1="5.41466" y1="40.1343" x2="5.41867" y2="40.3265" gradientUnits="userSpaceOnUse">
<stop stop-color="#F3B369"/>
<stop offset="0.470638" stop-color="#C08D53"/>
<stop offset="0.951214" stop-color="#9CB5B6"/>
</linearGradient>
<linearGradient id="paint12_linear_1602_2797" x1="18.832" y1="45.3422" x2="18.8849" y2="45.9254" gradientUnits="userSpaceOnUse">
<stop stop-color="#F3B369"/>
<stop offset="0.470638" stop-color="#C08D53"/>
<stop offset="0.951214" stop-color="#9CB5B6"/>
</linearGradient>
<linearGradient id="paint13_linear_1602_2797" x1="16.1779" y1="35.1215" x2="16.221" y2="35.4088" gradientUnits="userSpaceOnUse">
<stop stop-color="#F3B369"/>
<stop offset="0.470638" stop-color="#C08D53"/>
<stop offset="0.951214" stop-color="#9CB5B6"/>
</linearGradient>
<linearGradient id="paint14_linear_1602_2797" x1="16.1779" y1="35.1215" x2="16.221" y2="35.4088" gradientUnits="userSpaceOnUse">
<stop stop-color="#F3B369"/>
<stop offset="0.470638" stop-color="#C08D53"/>
<stop offset="0.951214" stop-color="#9CB5B6"/>
</linearGradient>
<linearGradient id="paint15_linear_1602_2797" x1="21.6366" y1="35.1215" x2="21.6798" y2="35.4088" gradientUnits="userSpaceOnUse">
<stop stop-color="#F3B369"/>
<stop offset="0.470638" stop-color="#C08D53"/>
<stop offset="0.951214" stop-color="#9CB5B6"/>
</linearGradient>
<linearGradient id="paint16_linear_1602_2797" x1="21.6366" y1="35.1215" x2="21.6798" y2="35.4088" gradientUnits="userSpaceOnUse">
<stop stop-color="#F3B369"/>
<stop offset="0.470638" stop-color="#C08D53"/>
<stop offset="0.951214" stop-color="#9CB5B6"/>
</linearGradient>
</defs>
</svg>
